<svg width="28" height="26" viewBox="0 0 28 26" fill="none" xmlns="http://www.w3.org/2000/svg">
<path d="M5.13335 5.52005C3.93335 4.66671 3.64002 3.01338 4.48002 1.80005C5.32002 0.600046 6.98669 0.306712 8.20002 1.14671C9.40002 2.00005 9.69335 3.65338 8.85335 4.86671C8.00002 6.06671 6.34669 6.36005 5.13335 5.52005ZM19.3334 23.3334H9.90669C7.93335 23.3334 6.25335 21.8934 5.96002 19.9467L3.33335 7.33338H0.666687L3.32002 20.3467C3.56495 21.9214 4.36475 23.3566 5.57506 24.3933C6.78536 25.43 8.32641 25.9999 9.92002 26H19.3334V23.3334ZM19.64 18H13.1334L11.76 12.5334C13.8667 13.72 16.1334 14.5867 18.6267 14.16V11.32C16.4534 11.7334 14.04 10.96 12.3734 9.65338L10.1867 7.96005C9.88002 7.72005 9.53335 7.56005 9.17335 7.45338C8.7451 7.32705 8.29373 7.29969 7.85335 7.37338H7.82669C7.04153 7.51278 6.34322 7.95666 5.88374 8.60842C5.42427 9.26017 5.24083 10.067 5.37335 10.8534L7.17335 18.7467C7.34923 19.6614 7.83795 20.4863 8.55565 21.0799C9.27336 21.6735 10.1753 21.9988 11.1067 22H20.24L25.3334 26L27.3334 24L19.64 18Z" fill="#6E7491"/>
</svg>
