<svg width="27" height="22" viewBox="0 0 27 22" fill="none" xmlns="http://www.w3.org/2000/svg">
<path d="M12.406 2.40599L13.219 2.62499L15.656 6.594L12.844 5.75L12.406 2.40599Z" fill="#6E7491"/>
<path d="M2.78099 0.624994L3.21899 0.749994L4.81199 4.93799L4.96899 5.406L5.43699 5.531L23.625 11.156C23.7781 11.1992 23.921 11.2726 24.0452 11.3719C24.1694 11.4712 24.2725 11.5945 24.3483 11.7343C24.4241 11.8741 24.4711 12.0278 24.4865 12.1861C24.5019 12.3444 24.4854 12.5042 24.438 12.656C24.3948 12.8091 24.3214 12.952 24.2221 13.0762C24.1228 13.2004 23.9995 13.3035 23.8597 13.3793C23.7199 13.4551 23.5662 13.5021 23.4079 13.5175C23.2496 13.5329 23.0898 13.5164 22.938 13.469L16.188 11.437L15.844 11.344L15.531 11.469L5.59399 15.625L4.84399 15.312L10.469 11.437L12.188 10.25L10.188 9.656L2.53099 7.344L2.78099 0.624994Z" fill="#6E7491"/>
<path fill-rule="evenodd" clip-rule="evenodd" d="M16.9393 15.4393C17.2206 15.158 17.6022 15 18 15C18.3978 15 18.7794 15.158 19.0607 15.4393C19.342 15.7206 19.5 16.1022 19.5 16.5C19.5 16.8978 19.342 17.2794 19.0607 17.5607C18.7794 17.842 18.3978 18 18 18C17.6022 18 17.2206 17.842 16.9393 17.5607C16.658 17.2794 16.5 16.8978 16.5 16.5C16.5 16.1022 16.658 15.7206 16.9393 15.4393ZM0.499994 22V20H26.5V22H0.499994Z" fill="#6E7491"/>
</svg>
