<svg width="26" height="22" viewBox="0 0 26 22" fill="none" xmlns="http://www.w3.org/2000/svg">
<path d="M22.906 0.781027C23.031 0.773027 23.16 0.777027 23.281 0.813027C23.4703 0.865809 23.6394 0.974348 23.7661 1.12452C23.8929 1.27469 23.9716 1.45954 23.9918 1.65503C24.0121 1.85051 23.9731 2.04757 23.8799 2.22057C23.7866 2.39357 23.6434 2.5345 23.469 2.62503L17.875 5.65603L17.562 5.81203L17.437 6.15603L13.719 15.094L13.281 15.281L14.344 9.37503L14.719 7.34403L12.906 8.31303L6.594 11.719L2.625 7.40603L2.781 7.31203L6.438 8.93803L6.906 9.15603L7.312 8.90603L22.532 0.875027C22.6483 0.816614 22.7759 0.784521 22.906 0.781027Z" fill="#6E7491"/>
<path d="M10.375 2.09403L14.219 3.03103L12.156 4.09403L9.906 2.37503L10.375 2.09403Z" fill="#6E7491"/>
<path fill-rule="evenodd" clip-rule="evenodd" d="M0 22V20H26V22H0Z" fill="#6E7491"/>
</svg>
