<svg width="186" height="24" viewBox="0 0 186 24" fill="none" xmlns="http://www.w3.org/2000/svg">
<path d="M145.211 0.871699L141.413 0.05187C141.093 -0.0174684 140.763 -0.0172875 140.444 0.0524003C140.124 0.122088 139.824 0.259652 139.562 0.455757L128.091 8.7927L125.336 8.67213C125.178 8.66677 125.022 8.71111 124.891 8.79889C124.76 8.88667 124.66 9.01345 124.604 9.16134C124.549 9.30923 124.542 9.47075 124.583 9.62309C124.624 9.77544 124.713 9.91091 124.835 10.0104L127.518 12.1383C127.562 12.174 127.615 12.1976 127.671 12.2071C127.727 12.2166 127.784 12.2116 127.837 12.1926C128.603 11.8972 131.454 10.3841 134.824 8.53349L135.499 15.4719C135.505 15.532 135.527 15.5894 135.563 15.6379C135.599 15.6864 135.647 15.7241 135.703 15.7471C135.759 15.77 135.82 15.7773 135.88 15.7681C135.939 15.7589 135.995 15.7336 136.042 15.6949L137.549 14.4411C137.631 14.3719 137.687 14.2758 137.705 14.1698L139.134 6.15839C141.545 4.82014 143.848 3.52409 145.47 2.60781C145.638 2.51624 145.774 2.37516 145.86 2.20367C145.945 2.03218 145.976 1.83859 145.947 1.64911C145.919 1.45962 145.833 1.28342 145.701 1.14436C145.57 1.00531 145.398 0.91012 145.211 0.871699Z" fill="#0C68BE"/>
<path d="M3.67523 17.9236C4.49195 18.332 5.42301 18.5362 6.46841 18.5362C7.35046 18.5362 8.26519 18.3891 9.21258 18.0951C10.1763 17.7848 11.0829 17.3274 11.9323 16.723C12.7816 16.1187 13.484 15.3755 14.0394 14.4934L11.6137 12.9008C11.238 13.5215 10.797 14.0279 10.2906 14.4199C9.78428 14.7956 9.25342 15.0814 8.69805 15.2775C8.15901 15.4571 7.63631 15.547 7.12995 15.547C6.32957 15.547 5.65169 15.3346 5.09632 14.9099C4.54095 14.4852 4.12443 13.9217 3.84674 13.2193C3.56906 12.5169 3.43022 11.7492 3.43022 10.9162C3.43022 10.1485 3.55272 9.35624 3.79774 8.53953C4.05909 7.70647 4.44295 6.93876 4.94931 6.23638C5.45568 5.534 6.08455 4.97047 6.83593 4.54577C7.58731 4.10475 8.46937 3.88423 9.4821 3.88423C9.98846 3.88423 10.4785 3.95774 10.9522 4.10475C11.4259 4.25176 11.8424 4.51311 12.2018 4.8888C12.5775 5.24815 12.8388 5.76268 12.9858 6.43239L15.877 4.69278C15.5666 3.58205 14.9214 2.67549 13.9414 1.97311C12.9777 1.2544 11.6954 0.895043 10.0946 0.895043C8.90223 0.895043 7.79149 1.09922 6.76243 1.50758C5.73336 1.89961 4.8023 2.43864 3.96925 3.12468C3.15253 3.81073 2.44199 4.59478 1.83762 5.47683C1.24958 6.35889 0.792217 7.28995 0.465529 8.27001C0.155176 9.25007 0 10.2301 0 11.2102C0 12.1249 0.138842 13.0233 0.416526 13.9054C0.69421 14.7874 1.10257 15.5796 1.6416 16.282C2.19697 16.9681 2.87485 17.5153 3.67523 17.9236Z" fill="#0C68BE"/>
<path fill-rule="evenodd" clip-rule="evenodd" d="M17.8911 17.8991C18.6915 18.3891 19.7124 18.6342 20.9538 18.6342C22.0972 18.6342 23.1426 18.43 24.09 18.0216C25.0537 17.5969 25.8868 17.0171 26.5892 16.282C27.2915 15.547 27.8306 14.7057 28.2063 13.7584C28.5983 12.811 28.7943 11.8146 28.7943 10.7692C28.7943 9.75644 28.6064 8.84171 28.2308 8.02499C27.8551 7.20828 27.267 6.5549 26.4666 6.06487C25.6826 5.57484 24.6699 5.32982 23.4285 5.32982C22.285 5.32982 21.2315 5.54217 20.2678 5.96686C19.3204 6.37522 18.4955 6.94693 17.7931 7.68197C17.0907 8.41702 16.5435 9.25824 16.1515 10.2056C15.7758 11.153 15.588 12.1494 15.588 13.1948C15.588 14.1912 15.7758 15.1059 16.1515 15.939C16.5272 16.7557 17.1071 17.4091 17.8911 17.8991ZM22.9139 15.498C22.4402 15.7266 21.9502 15.841 21.4438 15.841C20.9211 15.841 20.4719 15.7185 20.0962 15.4735C19.7369 15.2121 19.4592 14.8528 19.2632 14.3954C19.0835 13.938 18.9937 13.4153 18.9937 12.8273C18.9937 12.1576 19.0998 11.5369 19.3122 10.9652C19.5409 10.3771 19.8431 9.87078 20.2188 9.44608C20.5944 9.02139 21.011 8.6947 21.4683 8.46602C21.942 8.23734 22.4321 8.123 22.9384 8.123C23.4611 8.123 23.9021 8.25367 24.2615 8.51502C24.6372 8.76004 24.9149 9.11123 25.0946 9.56859C25.2906 10.026 25.3886 10.5568 25.3886 11.1612C25.3886 11.8309 25.2742 12.4516 25.0456 13.0233C24.8332 13.595 24.5392 14.0932 24.1635 14.5179C23.8041 14.9426 23.3876 15.2693 22.9139 15.498Z" fill="#0C68BE"/>
<path d="M35.1632 5.55034H32.1985L29.4788 18.3891H32.762L34.3546 10.8917C34.7466 10.1076 35.253 9.47058 35.8737 8.98055C36.5107 8.47419 37.1233 8.22101 37.7113 8.22101C38.136 8.22101 38.4627 8.35985 38.6914 8.63753C38.9201 8.89888 39.0344 9.30724 39.0344 9.86261C39.0344 10.0586 39.0262 10.271 39.0099 10.4996C38.9936 10.712 38.9527 10.9407 38.8874 11.1857L37.3683 18.3891H40.6515L42.2196 10.9162C42.481 10.3935 42.7995 9.92795 43.1752 9.51959C43.5509 9.11123 43.951 8.79271 44.3757 8.56403C44.8004 8.33535 45.2088 8.22101 45.6008 8.22101C46.0092 8.22101 46.3277 8.35985 46.5564 8.63753C46.8014 8.91522 46.9239 9.33174 46.9239 9.88711C46.9239 10.2465 46.8667 10.6793 46.7524 11.1857L45.2333 18.3891H48.5165L50.2316 10.3771C50.3296 9.93611 50.395 9.54409 50.4276 9.20107C50.4603 8.85805 50.4766 8.56403 50.4766 8.31901C50.4766 7.74731 50.3868 7.24094 50.2071 6.79992C50.0438 6.34255 49.7579 5.9832 49.3496 5.72185C48.9412 5.4605 48.3613 5.32982 47.6099 5.32982C46.9892 5.32982 46.3767 5.436 45.7723 5.64834C45.1843 5.86069 44.6208 6.16288 44.0817 6.5549C43.5427 6.94693 43.0445 7.44512 42.5871 8.04949C42.5708 7.49413 42.4565 7.01226 42.2441 6.6039C42.0481 6.19554 41.7377 5.88519 41.313 5.67284C40.8884 5.44416 40.333 5.32982 39.6469 5.32982C38.7159 5.32982 37.8012 5.5585 36.9028 6.01587C36.0207 6.47323 35.2693 7.11027 34.6486 7.92699L35.1632 5.55034Z" fill="#0C68BE"/>
<path fill-rule="evenodd" clip-rule="evenodd" d="M56.9108 5.55034H54.0441L50.1973 23.608H53.4805L55.0732 16.135C55.3018 16.9027 55.7265 17.5153 56.3472 17.9726C56.9679 18.4136 57.7438 18.6342 58.6749 18.6342C59.5896 18.6342 60.4635 18.4218 61.2965 17.9971C62.1296 17.5561 62.8646 16.9599 63.5017 16.2085C64.1551 15.4571 64.6696 14.5996 65.0453 13.6358C65.421 12.6558 65.6088 11.6431 65.6088 10.5977C65.6088 9.61759 65.4291 8.72737 65.0698 7.92699C64.7104 7.1266 64.1959 6.49773 63.5262 6.04037C62.8728 5.56667 62.0806 5.32982 61.1495 5.32982C60.2348 5.32982 59.3691 5.55034 58.5524 5.99136C57.752 6.41606 57.0496 7.0041 56.4452 7.75548L56.9108 5.55034ZM59.6794 15.449C59.2057 15.7103 58.7075 15.841 58.1848 15.841C57.7602 15.841 57.3681 15.7348 57.0088 15.5225C56.6658 15.2938 56.3799 14.9834 56.1512 14.5914C55.9225 14.1994 55.7592 13.7665 55.6612 13.2928L56.3227 10.2791C56.5024 9.96878 56.7148 9.68293 56.9598 9.42158C57.2211 9.16023 57.4988 8.93155 57.7928 8.73554C58.1032 8.53953 58.4135 8.39252 58.7239 8.29451C59.0342 8.18017 59.3364 8.123 59.6304 8.123C60.1531 8.123 60.6023 8.25367 60.978 8.51502C61.37 8.77637 61.6641 9.13573 61.8601 9.59309C62.0724 10.0505 62.1786 10.565 62.1786 11.1367C62.1786 11.7084 62.0643 12.2801 61.8356 12.8518C61.6232 13.4072 61.3292 13.9135 60.9535 14.3709C60.5942 14.8119 60.1695 15.1713 59.6794 15.449Z" fill="#0C68BE"/>
<path fill-rule="evenodd" clip-rule="evenodd" d="M68.8995 17.9481C69.5855 18.4055 70.4023 18.6342 71.3496 18.6342C72.1827 18.6342 73.0239 18.4218 73.8733 17.9971C74.7227 17.5724 75.4577 16.9599 76.0784 16.1595C76.0458 16.2902 76.0213 16.4209 76.0049 16.5515C75.9886 16.6659 75.9723 16.772 75.9559 16.8701C75.9396 16.9517 75.9314 17.0252 75.9314 17.0906C75.9314 17.5806 76.0948 17.9481 76.4215 18.1931C76.7482 18.4382 77.2055 18.5607 77.7935 18.5607C77.9569 18.5607 78.1447 18.5443 78.3571 18.5117C78.5858 18.479 78.8471 18.4382 79.1411 18.3891L79.7292 15.596C79.3372 15.5796 79.1411 15.4 79.1411 15.0569C79.1411 14.9916 79.1493 14.9263 79.1656 14.8609L79.2146 14.6159L81.1258 5.59934H77.8426L77.3525 7.80448C77.1238 7.08577 76.6992 6.49773 76.0784 6.04037C75.4577 5.56667 74.7064 5.32982 73.8243 5.32982C72.8932 5.32982 72.003 5.55034 71.1536 5.99136C70.3206 6.41606 69.5692 7.0041 68.8995 7.75548C68.2461 8.50686 67.7316 9.36441 67.3559 10.3281C66.9802 11.2919 66.7924 12.3046 66.7924 13.3663C66.7924 14.3627 66.972 15.2611 67.3314 16.0615C67.7071 16.8455 68.2298 17.4744 68.8995 17.9481ZM73.7018 15.694C73.3914 15.792 73.0974 15.841 72.8197 15.841C72.297 15.841 71.8397 15.7103 71.4476 15.449C71.072 15.1876 70.7779 14.8283 70.5656 14.3709C70.3532 13.9135 70.2471 13.4072 70.2471 12.8518C70.2471 12.2638 70.3532 11.6921 70.5656 11.1367C70.7943 10.565 71.0965 10.0586 71.4722 9.61759C71.8478 9.16023 72.2725 8.80088 72.7462 8.53953C73.2363 8.26184 73.7426 8.123 74.2653 8.123C74.6737 8.123 75.0575 8.23734 75.4169 8.46602C75.7763 8.67837 76.0784 8.97239 76.3235 9.34808C76.5685 9.72377 76.7155 10.1485 76.7645 10.6222L76.1274 13.6849C75.9478 13.9952 75.7272 14.2892 75.4659 14.5669C75.2046 14.8283 74.9187 15.0569 74.6084 15.2529C74.3143 15.4326 74.0121 15.5796 73.7018 15.694Z" fill="#0C68BE"/>
<path d="M87.3007 5.55034H84.336L81.6164 18.3891H84.8996L86.4922 10.8917C86.7699 10.369 87.1129 9.91161 87.5212 9.51959C87.9296 9.11123 88.3625 8.79271 88.8198 8.56403C89.2772 8.33535 89.7019 8.22101 90.0939 8.22101C90.5186 8.22101 90.8534 8.35985 91.0985 8.63753C91.3598 8.89888 91.4905 9.31541 91.4905 9.88711C91.4905 10.0831 91.4742 10.2873 91.4415 10.4996C91.4251 10.712 91.3843 10.9407 91.319 11.1857L89.7999 18.3891H93.0831L94.7737 10.3771C94.839 10.0178 94.8962 9.6666 94.9452 9.32358C94.9942 8.98055 95.0187 8.63753 95.0187 8.29451C95.0187 7.73914 94.9289 7.24094 94.7492 6.79992C94.5858 6.34255 94.3 5.9832 93.8916 5.72185C93.4833 5.4605 92.9034 5.32982 92.152 5.32982C91.4496 5.32982 90.7636 5.436 90.0939 5.64834C89.4405 5.84436 88.828 6.13837 88.2563 6.5304C87.7009 6.90609 87.2109 7.37162 86.7862 7.92699L87.3007 5.55034Z" fill="#0C68BE"/>
<path d="M96.2742 21.2313C95.8659 21.3457 95.335 21.4273 94.6816 21.4763L95.0736 24C95.7924 23.9837 96.4539 23.8857 97.0583 23.706C97.6626 23.5426 98.2343 23.265 98.7734 22.8729C99.3287 22.4809 99.8678 21.9664 100.39 21.3293C100.93 20.7086 101.485 19.9409 102.057 19.0262L104.017 15.8655C104.833 14.5587 105.511 13.4317 106.05 12.4843C106.606 11.5369 107.063 10.6875 107.422 9.93611C107.782 9.18473 108.092 8.46602 108.353 7.77998C108.615 7.0776 108.852 6.33439 109.064 5.55034H105.879C105.699 6.28538 105.503 6.99593 105.291 7.68197C105.078 8.36802 104.825 9.05406 104.531 9.7401C104.254 10.4098 103.919 11.1122 103.527 11.8472C103.151 12.5659 102.71 13.3418 102.204 14.1749L101.371 15.547L100.268 5.55034H96.9113L99.0429 18.6587L98.3324 19.6142C98.0057 20.0716 97.6871 20.4228 97.3768 20.6678C97.0664 20.9291 96.6989 21.117 96.2742 21.2313Z" fill="#0C68BE"/>
<path fill-rule="evenodd" clip-rule="evenodd" d="M145.424 17.8991C146.224 18.3891 147.245 18.6342 148.486 18.6342C149.63 18.6342 150.675 18.43 151.622 18.0216C152.586 17.5969 153.419 17.0171 154.122 16.282C154.824 15.547 155.363 14.7057 155.739 13.7584C156.131 12.811 156.327 11.8146 156.327 10.7692C156.327 9.75644 156.139 8.84171 155.763 8.02499C155.388 7.20828 154.799 6.5549 153.999 6.06487C153.215 5.57484 152.202 5.32982 150.961 5.32982C149.817 5.32982 148.764 5.54217 147.8 5.96686C146.853 6.37522 146.028 6.94693 145.326 7.68197C144.623 8.41702 144.076 9.25824 143.684 10.2056C143.308 11.153 143.12 12.1494 143.12 13.1948C143.12 14.1912 143.308 15.1059 143.684 15.939C144.06 16.7557 144.639 17.4091 145.424 17.8991ZM150.446 15.498C149.973 15.7266 149.483 15.841 148.976 15.841C148.454 15.841 148.004 15.7185 147.629 15.4735C147.269 15.2121 146.992 14.8528 146.796 14.3954C146.616 13.938 146.526 13.4153 146.526 12.8273C146.526 12.1576 146.632 11.5369 146.845 10.9652C147.073 10.3771 147.376 9.87078 147.751 9.44608C148.127 9.02139 148.543 8.6947 149.001 8.46602C149.474 8.23734 149.965 8.123 150.471 8.123C150.994 8.123 151.435 8.25367 151.794 8.51502C152.17 8.76004 152.447 9.11123 152.627 9.56859C152.823 10.026 152.921 10.5568 152.921 11.1612C152.921 11.8309 152.807 12.4516 152.578 13.0233C152.366 13.595 152.072 14.0932 151.696 14.5179C151.337 14.9426 150.92 15.2693 150.446 15.498Z" fill="#0C68BE"/>
<path fill-rule="evenodd" clip-rule="evenodd" d="M157.82 23.1424C158.653 23.6161 159.739 23.853 161.079 23.853C162.402 23.853 163.627 23.608 164.754 23.1179C165.881 22.6442 166.836 21.95 167.62 21.0353C168.404 20.1369 168.927 19.0507 169.189 17.7766L171.81 5.55034H168.919L168.453 7.80448C168.159 7.0531 167.702 6.45689 167.081 6.01587C166.477 5.5585 165.701 5.32982 164.754 5.32982C163.79 5.32982 162.867 5.55034 161.985 5.99136C161.119 6.41606 160.343 7.0041 159.657 7.75548C158.988 8.49052 158.457 9.33991 158.065 10.3036C157.689 11.2674 157.501 12.2801 157.501 13.3418C157.501 14.2892 157.665 15.1549 157.991 15.939C158.318 16.7067 158.8 17.3192 159.437 17.7766C160.09 18.234 160.866 18.4627 161.765 18.4627C162.581 18.4627 163.39 18.2666 164.19 17.8746C165.007 17.4663 165.693 16.8946 166.248 16.1595L165.905 17.7766C165.742 18.6097 165.432 19.2875 164.974 19.8102C164.533 20.3493 164.019 20.7413 163.431 20.9863C162.843 21.2477 162.23 21.3783 161.593 21.3783C160.793 21.3783 160.082 21.2068 159.461 20.8638C158.841 20.5208 158.367 20.0471 158.04 19.4427L155.884 21.1823C156.358 22.0317 157.003 22.6851 157.82 23.1424ZM164.411 15.6695C164.1 15.7838 163.782 15.841 163.455 15.841C162.949 15.841 162.5 15.7103 162.108 15.449C161.732 15.1876 161.438 14.8283 161.226 14.3709C161.013 13.8972 160.907 13.3908 160.907 12.8518C160.907 12.2638 161.013 11.6921 161.226 11.1367C161.438 10.5813 161.732 10.0831 162.108 9.64209C162.483 9.18473 162.908 8.81721 163.382 8.53953C163.855 8.26184 164.362 8.123 164.901 8.123C165.325 8.123 165.709 8.22917 166.052 8.44152C166.412 8.63753 166.714 8.92338 166.959 9.29907C167.204 9.67476 167.359 10.1158 167.424 10.6222L166.787 13.6849C166.608 13.9625 166.395 14.2402 166.15 14.5179C165.905 14.7793 165.636 15.0079 165.342 15.2039C165.048 15.4 164.737 15.5551 164.411 15.6695Z" fill="#0C68BE"/>
<path fill-rule="evenodd" clip-rule="evenodd" d="M174.758 17.8991C175.559 18.3891 176.58 18.6342 177.821 18.6342C178.965 18.6342 180.01 18.43 180.957 18.0216C181.921 17.5969 182.754 17.0171 183.456 16.282C184.159 15.547 184.698 14.7057 185.074 13.7584C185.466 12.811 185.662 11.8146 185.662 10.7692C185.662 9.75644 185.474 8.84171 185.098 8.02499C184.722 7.20828 184.134 6.5549 183.334 6.06487C182.55 5.57484 181.537 5.32982 180.296 5.32982C179.152 5.32982 178.099 5.54217 177.135 5.96686C176.188 6.37522 175.363 6.94693 174.66 7.68197C173.958 8.41702 173.411 9.25824 173.019 10.2056C172.643 11.153 172.455 12.1494 172.455 13.1948C172.455 14.1912 172.643 15.1059 173.019 15.939C173.394 16.7557 173.974 17.4091 174.758 17.8991ZM179.781 15.498C179.308 15.7266 178.817 15.841 178.311 15.841C177.788 15.841 177.339 15.7185 176.964 15.4735C176.604 15.2121 176.327 14.8528 176.13 14.3954C175.951 13.938 175.861 13.4153 175.861 12.8273C175.861 12.1576 175.967 11.5369 176.18 10.9652C176.408 10.3771 176.71 9.87078 177.086 9.44608C177.462 9.02139 177.878 8.6947 178.336 8.46602C178.809 8.23734 179.299 8.123 179.806 8.123C180.328 8.123 180.769 8.25367 181.129 8.51502C181.505 8.76004 181.782 9.11123 181.962 9.56859C182.158 10.026 182.256 10.5568 182.256 11.1612C182.256 11.8309 182.142 12.4516 181.913 13.0233C181.701 13.595 181.406 14.0932 181.031 14.5179C180.671 14.9426 180.255 15.2693 179.781 15.498Z" fill="#0C68BE"/>
<path d="M131.635 4.97084L128.169 3.97016C128.109 3.95482 128.056 3.92196 128.015 3.87582C127.974 3.82968 127.948 3.7724 127.941 3.71137C127.933 3.65034 127.944 3.58838 127.971 3.53349C127.999 3.47861 128.043 3.43333 128.097 3.40352L129.827 2.40887C129.872 2.38017 129.924 2.36357 129.977 2.36064L135.445 2.20391L131.635 4.97084Z" fill="#0C68BE"/>
<path d="M122.836 6.43535C123 6.3331 123.051 6.11726 122.948 5.95322C122.846 5.78915 122.63 5.73904 122.466 5.84128L122.651 6.13834C122.466 5.84128 122.466 5.84125 122.466 5.84128L122.465 5.84201L122.463 5.84341L122.455 5.8482L122.428 5.86567C122.405 5.88079 122.371 5.90284 122.329 5.9316C122.244 5.9891 122.123 6.07352 121.976 6.18315C121.683 6.40217 121.283 6.72302 120.859 7.13197C120.72 7.26608 120.715 7.48766 120.85 7.62689C120.984 7.76612 121.205 7.77028 121.344 7.63617C121.744 7.2517 122.119 6.94967 122.395 6.74419C122.532 6.64156 122.644 6.56332 122.721 6.51122C122.76 6.48518 122.789 6.46569 122.809 6.45297L122.831 6.43902L122.836 6.43591L122.836 6.43535Z" fill="#0C68BE"/>
<path d="M120.105 9.09386C120.213 8.93344 120.171 8.71595 120.01 8.60808C119.85 8.5002 119.632 8.54279 119.524 8.7032C119.148 9.26252 118.822 9.89659 118.624 10.5928C118.454 11.1906 118.317 11.8032 118.237 12.4068C118.211 12.5984 118.346 12.7744 118.538 12.7998C118.729 12.8253 118.905 12.6906 118.931 12.4989C119.006 11.9361 119.135 11.3575 119.298 10.7844C119.471 10.1741 119.76 9.60666 120.105 9.09386Z" fill="#0C68BE"/>
<path d="M124.678 11.6829C124.485 11.6696 124.318 11.8151 124.304 12.008C124.291 12.2008 124.436 12.368 124.629 12.3813C124.954 12.4037 125.301 12.5257 125.607 12.73C126.183 13.1137 126.533 13.7378 126.654 14.4564C126.686 14.647 126.867 14.7755 127.057 14.7434C127.248 14.7113 127.376 14.5308 127.344 14.3401C127.198 13.472 126.763 12.6593 125.996 12.1475C125.598 11.8827 125.136 11.7146 124.678 11.6829Z" fill="#0C68BE"/>
<path d="M133.743 11.8348C133.883 11.9679 133.889 12.1894 133.756 12.3297L133.743 11.8348Z" fill="#0C68BE"/>
<path d="M133.756 12.3297L133.502 12.0887L133.756 12.3297Z" fill="#0C68BE"/>
<path d="M133.502 12.0887C133.756 12.3297 133.756 12.3296 133.756 12.3297L133.502 12.0887Z" fill="#0C68BE"/>
<path d="M133.753 12.333L133.745 12.3414L133.753 12.333Z" fill="#0C68BE"/>
<path d="M133.745 12.3414L133.714 12.3727L133.745 12.3414Z" fill="#0C68BE"/>
<path d="M133.714 12.3727C133.688 12.3998 133.649 12.4392 133.599 12.489L133.714 12.3727Z" fill="#0C68BE"/>
<path d="M133.599 12.489C133.499 12.5888 133.354 12.7308 133.17 12.9019L133.599 12.489Z" fill="#0C68BE"/>
<path d="M133.17 12.9019C132.803 13.2438 132.282 13.7031 131.666 14.1727L133.17 12.9019Z" fill="#0C68BE"/>
<path d="M131.666 14.1727C131.512 14.2898 131.292 14.2602 131.175 14.1064L131.666 14.1727Z" fill="#0C68BE"/>
<path d="M131.175 14.1064C131.058 13.9527 131.088 13.733 131.241 13.6159L131.175 14.1064Z" fill="#0C68BE"/>
<path d="M131.241 13.6159C131.835 13.1636 132.338 12.7201 132.693 12.3897L131.241 13.6159Z" fill="#0C68BE"/>
<path d="M132.693 12.3897C132.87 12.2246 133.01 12.0881 133.105 11.9933L132.693 12.3897Z" fill="#0C68BE"/>
<path d="M133.105 11.9933C133.152 11.946 133.189 11.9091 133.213 11.8842L133.105 11.9933Z" fill="#0C68BE"/>
<path d="M133.213 11.8842L133.24 11.8563L133.213 11.8842Z" fill="#0C68BE"/>
<path d="M123.751 12.6532C123.893 12.5222 123.902 12.3007 123.771 12.1586C123.64 12.0164 123.418 12.0074 123.276 12.1384C122.949 12.4401 122.732 12.8778 122.655 13.441C122.544 14.2429 122.692 14.8572 123.087 15.3024C123.215 15.447 123.436 15.4602 123.581 15.3319C123.726 15.2036 123.739 14.9823 123.61 14.8377C123.392 14.591 123.256 14.2051 123.348 13.5366C123.408 13.1011 123.565 12.824 123.751 12.6532Z" fill="#0C68BE"/>
<path d="M118.9 14.2099C118.876 14.0181 118.701 13.8821 118.509 13.9061C118.318 13.9302 118.182 14.1051 118.206 14.297C118.289 14.9627 118.491 15.5929 118.862 16.1362C119.334 16.8287 119.885 17.457 120.498 17.9574C120.647 18.0796 120.868 18.0573 120.99 17.9076C121.112 17.7578 121.09 17.5373 120.94 17.4151C120.389 16.9651 119.882 16.3899 119.44 15.7417C119.146 15.3105 118.973 14.7927 118.9 14.2099Z" fill="#0C68BE"/>
<path d="M129.286 15.6549C129.461 15.5726 129.536 15.3641 129.454 15.1892C129.372 15.0143 129.163 14.9392 128.988 15.0215C128.142 15.4195 127.296 15.6515 126.529 15.5901L126.428 15.582C125.878 15.5381 125.362 15.4969 124.903 15.4122C124.713 15.3772 124.531 15.5028 124.496 15.6929C124.461 15.883 124.586 16.0656 124.776 16.1006C125.272 16.1922 125.823 16.236 126.361 16.2789L126.474 16.2879C127.411 16.363 128.386 16.0786 129.286 15.6549Z" fill="#0C68BE"/>
<path d="M127.01 16.8509C127.09 16.6748 127.011 16.4674 126.835 16.3879C126.659 16.3083 126.452 16.3867 126.372 16.5628C126.077 17.2153 125.595 17.763 124.95 18.0737C124.227 18.4214 123.531 18.4959 122.874 18.3732C122.684 18.3377 122.501 18.4631 122.465 18.6531C122.43 18.8431 122.555 19.0259 122.745 19.0614C123.551 19.2117 124.398 19.116 125.253 18.7045C126.07 18.3114 126.659 17.6283 127.01 16.8509Z" fill="#0C68BE"/>
</svg>
